# xmcd
#
# Track frame offsets:
#	150
#	16159
#	30647
#	41943
#	58659
#	73681
#	83583
#	103056
#	120329
#	134279
#
# Disc length: 2001 seconds
#
# Revision: 0
# Processed by: cddbd v1.5.2PL0 Copyright (c) Steve Scherf et al.
# Submitted via: EasyCDDAExtractor 8.2.3.1
#
DISCID=7f07cf0a
DTITLE=America - Homecoming
DYEAR=1972
DGENRE=Country
TTITLE0=Ventura Highway
TTITLE1=To Each His Own
TTITLE2=Don't Cross The River
TTITLE3=Moon Song
TTITLE4=Only In Your Heart
TTITLE5=Till The Sun Comes Up Again
TTITLE6=Cornwall Blank
TTITLE7=Head and Heart
TTITLE8=California Revisited
TTITLE9=Saturn Nights
EXTD=ID3G:   2\n
EXTT0=
EXTT1=
EXTT2=
EXTT3=
EXTT4=
EXTT5=
EXTT6=
EXTT7=
EXTT8=
EXTT9=
PLAYORDER=
